/* XPM */
static char *result[] = {
/* columns rows colors chars-per-pixel */
"20 30 12 1 ",
"  c #111111",
". c #1E1314",
"X c #231416",
"o c #551B21",
"O c #6F1F28",
"+ c #8C222E",
"@ c #8C232E",
"# c #AC2836",
"$ c #DB2E41",
"% c #DC2E42",
"& c #ED3146",
"* c white",
/* pixels */
"                    ",
"                    ",
"                    ",
"                    ",
"                    ",
"                    ",
"      XO#%%#OX      ",
"    .@&&&&&&&&+.    ",
"   o$&&&&&&&&&&$o   ",
"  .$&&&&&&&&&&&&$.  ",
"  +&&&&&&&&&&&&&&+  ",
" X&&&&*&&&&&&*&&&&X ",
" O&&&&&*&&&&*&&&&&O ",
" #&&&&&&*&&*&&&&&&# ",
" %&&&&&&&**&&&&&&&% ",
" %&&&&&&&**&&&&&&&% ",
" #&&&&&&*&&*&&&&&&# ",
" O&&&&&*&&&&*&&&&&O ",
" X&&&&*&&&&&&*&&&&X ",
"  +&&&&&&&&&&&&&&+  ",
"  .$&&&&&&&&&&&&$.  ",
"   o$&&&&&&&&&&$o   ",
"    .+&&&&&&&&@.    ",
"      XO#%%#OX      ",
"                    ",
"                    ",
"                    ",
"                    ",
"                    ",
"                    "
};
