/* XPM */
static char *_41a3b2e70a949a08e4dbae59c9c11d3ytmTMyM0ilcqnloI[] = {
/* columns rows colors chars-per-pixel */
"20 30 16 1 ",
"  c #111111",
". c #161616",
"X c gray11",
"o c gray13",
"O c #272727",
"+ c gray16",
"@ c #323232",
"# c #484848",
"$ c #4C4C4C",
"% c #505050",
"& c gray45",
"* c #848484",
"= c #929292",
"- c #A9A9A9",
"; c #BBBBBB",
": c #C3C3C3",
/* pixels */
"                    ",
"                    ",
"                    ",
"                    ",
"                    ",
"                    ",
"                    ",
"                    ",
"                    ",
"                    ",
"                    ",
"                    ",
"      OX    XO      ",
"     +:*+  +*:@     ",
"     o&;-$$-;&o     ",
"      .%-;;-#.      ",
"        +==+        ",
"         XX         ",
"                    ",
"                    ",
"                    ",
"                    ",
"                    ",
"                    ",
"                    ",
"                    ",
"                    ",
"                    ",
"                    ",
"                    "
};
