/* XPM */
static char *_977d7d5276740cccf3bf74bca5e5b6fw3ZaanxCPrTPs4o6[] = {
/* columns rows colors chars-per-pixel */
"20 30 28 1 ",
"  c #111111",
". c gray8",
"X c gray12",
"o c #252525",
"O c #2A2A2A",
"+ c #313131",
"@ c gray23",
"# c #3F3F3F",
"$ c #434343",
"% c #444444",
"& c #494949",
"* c #4C4C4C",
"= c #505050",
"- c gray33",
"; c #585858",
": c gray39",
"> c #767676",
", c #797979",
"< c #7E7E7E",
"1 c #A0A0A0",
"2 c #B2B2B2",
"3 c gray75",
"4 c #C0C0C0",
"5 c #D7D7D7",
"6 c #D8D8D8",
"7 c #E7E7E7",
"8 c #E9E9E9",
"9 c #F1F1F1",
/* pixels */
"                    ",
"                    ",
"                    ",
"                    ",
"                    ",
"                    ",
"      .o+@@+o.      ",
"    .O########O.    ",
"   X@##########@X   ",
"  .@############@.  ",
"  O##############O  ",
" .################. ",
" o####-&####&-####o ",
" +###;92-##-29:###+ ",
" @###=175,,581=###@ ",
" @####$<5776>%####@ ",
" +######;43;######+ ",
" o#######**#######o ",
" .################. ",
"  O##############O  ",
"  .@############@.  ",
"   X@##########@X   ",
"    .O########O.    ",
"      .o+@@+o.      ",
"                    ",
"                    ",
"                    ",
"                    ",
"                    ",
"                    "
};
