/* XPM */
static char *_e8a9720b8194f37a7e123dc7f36ed58u0QPczKLMfrD6sB9[] = {
/* columns rows colors chars-per-pixel */
"20 30 20 1 ",
"  c #111111",
". c #181818",
"X c gray12",
"o c #202020",
"O c #272727",
"+ c gray18",
"@ c #313131",
"# c #343434",
"$ c gray25",
"% c #5B5B5B",
"& c #5F5F5F",
"* c gray38",
"= c #676767",
"- c gray58",
"; c #ACACAC",
": c gray74",
"> c #DDDDDD",
", c #F3F3F3",
"< c #F4F4F4",
"1 c white",
/* pixels */
"                    ",
"                    ",
"                    ",
"                    ",
"                    ",
"                    ",
"                    ",
"                    ",
"                    ",
"                    ",
"                    ",
"                    ",
"      +o    X+      ",
"     @1;@  @;1$     ",
"     O-<>*&><-O     ",
"      .=>,,>%.      ",
"        @::#        ",
"         oO         ",
"                    ",
"                    ",
"                    ",
"                    ",
"                    ",
"                    ",
"                    ",
"                    ",
"                    ",
"                    ",
"                    ",
"                    "
};
