/* XPM */
static char *_37799a4b8674a338e3183b3446fa233n18gFJjHBTIre6ox[] = {
/* columns rows colors chars-per-pixel */
"20 30 9 1 ",
"  c #111111",
". c #3E3E3E",
"X c gray33",
"o c #6A6A6A",
"O c gray50",
"+ c #808080",
"@ c gray59",
"# c gray63",
"$ c gray76",
/* pixels */
"                    ",
"                    ",
"                    ",
"                    ",
"                    ",
"                    ",
"                    ",
"                    ",
"                    ",
"                    ",
"     .ooooooXo.     ",
"     o$$$$$$ +o     ",
"     o#@@@@@o#o     ",
"     o.      oo     ",
"     o.      oo     ",
"     o.      oo     ",
"     o.      oo     ",
"     o.      oo     ",
"     oOoooooo@o     ",
"     .oooooooo.     ",
"                    ",
"                    ",
"                    ",
"                    ",
"                    ",
"                    ",
"                    ",
"                    ",
"                    ",
"                    "
};
