/* XPM */
static char *_4b41ae526ef4b61b881a0b958daad62J7BE1xdnrRCkZy8T[] = {
/* columns rows colors chars-per-pixel */
"20 30 15 1 ",
"  c #111111",
". c gray8",
"X c gray12",
"o c #252525",
"O c #2A2A2A",
"+ c #313131",
"@ c gray23",
"# c #3F3F3F",
"$ c gray42",
"% c #818181",
"& c #979797",
"* c #AEAEAE",
"= c #C5C5C5",
"- c #D0D0D0",
"; c gray94",
/* pixels */
"                    ",
"                    ",
"                    ",
"                    ",
"                    ",
"                    ",
"      .o+@@+o.      ",
"    .O########O.    ",
"   X@##########@X   ",
"  .@############@.  ",
"  O##$&&&&&&%&$##O  ",
" .###&;;;;;;#*&###. ",
" o###&-=====&-&###o ",
" +###&$######&&###+ ",
" @###&$######&&###@ ",
" @###&$######&&###@ ",
" +###&$######&&###+ ",
" o###&$######&&###o ",
" .###&*&&&&&&=&###. ",
"  O##$&&&&&&&&$##O  ",
"  .@############@.  ",
"   X@##########@X   ",
"    .O########O.    ",
"      .o+@@+o.      ",
"                    ",
"                    ",
"                    ",
"                    ",
"                    ",
"                    "
};
