/* XPM */
static char *result[] = {
/* columns rows colors chars-per-pixel */
"20 30 12 1 ",
"  c #111111",
". c #202020",
"X c #2F2F2F",
"o c gray30",
"O c gray42",
"+ c gray48",
"@ c #888888",
"# c #A5A5A5",
"$ c gray65",
"% c gray71",
"& c gray77",
"* c white",
/* pixels */
"                    ",
"                    ",
"                    ",
"                    ",
"                    ",
"                    ",
"                    ",
"                    ",
"                    ",
"                    ",
"     o@@@@@@+@o     ",
"     @****** %@     ",
"     O&&&&&&@%O     ",
"                    ",
"         $#         ",
"        $**#        ",
"       $****#       ",
"      .o+**oo.      ",
"        o**         ",
"        X@@         ",
"                    ",
"                    ",
"                    ",
"                    ",
"                    ",
"                    ",
"                    ",
"                    ",
"                    ",
"                    "
};
