/* XPM */
static char *result[] = {
/* columns rows colors chars-per-pixel */
"20 30 13 1 ",
"  c #111111",
". c gray11",
"X c #272727",
"o c #3E3E3E",
"O c gray33",
"+ c #5F5F5F",
"@ c DimGray",
"# c #6A6A6A",
"$ c gray50",
"% c #808080",
"& c #8B8B8B",
"* c gray59",
"= c gray76",
/* pixels */
"                    ",
"                    ",
"                    ",
"                    ",
"                    ",
"                    ",
"                    ",
"                    ",
"                    ",
"                    ",
"     o######+#o     ",
"     @====== &@     ",
"     O******@&O     ",
"                    ",
"         %$         ",
"        %==$        ",
"       %====$       ",
"      .o+==oo.      ",
"        o==         ",
"        X@@         ",
"                    ",
"                    ",
"                    ",
"                    ",
"                    ",
"                    ",
"                    ",
"                    ",
"                    ",
"                    "
};
