/* XPM */
static char *result[] = {
/* columns rows colors chars-per-pixel */
"20 30 27 1 ",
"  c #111111",
". c #1D1D1D",
"X c #202020",
"o c #272727",
"O c #2A2A2A",
"+ c #2F2F2F",
"@ c gray22",
"# c gray24",
"$ c #3E3E3E",
"% c gray25",
"& c #4C4C4C",
"* c gray30",
"= c gray32",
"- c gray36",
"; c gray42",
": c #888888",
"> c gray65",
", c gray71",
"< c gray77",
"1 c #D2D2D2",
"2 c LightGray",
"3 c gray85",
"4 c #E2E2E2",
"5 c gray90",
"6 c gray92",
"7 c gray98",
"8 c white",
/* pixels */
"                    ",
"                    ",
"                    ",
"                    ",
"                    ",
"                    ",
"                    ",
"                    ",
"                    ",
"     =%    $+       ",
"    .78%  :8*       ",
"     O88%>88*       ",
"     -@36&28*       ",
"     :1@36&2*       ",
"     :81@36&24,:*   ",
"     :881@36%       ",
"     :8881@38%      ",
"     :8,;,1@88%     ",
"     +X   -<@85o    ",
"           X+O#     ",
"                    ",
"                    ",
"                    ",
"                    ",
"                    ",
"                    ",
"                    ",
"                    ",
"                    ",
"                    "
};
