/* XPM */
static char *result[] = {
/* columns rows colors chars-per-pixel */
"20 30 25 1 ",
"  c #111111",
". c gray8",
"X c #151515",
"o c gray12",
"O c #252525",
"+ c #2A2A2A",
"@ c #313131",
"# c gray23",
"$ c #3F3F3F",
"% c gray29",
"& c #555555",
"* c #606060",
"= c gray42",
"- c #767676",
"; c #818181",
": c gray55",
"> c #979797",
", c gray64",
"< c gray73",
"1 c gray77",
"2 c #DADADA",
"3 c gray86",
"4 c gray90",
"5 c #E6E6E6",
"6 c gray94",
/* pixels */
"                    ",
"                    ",
"                    ",
"                    ",
"                    ",
"                    ",
"      XO@##@OX      ",
"    .+$$$$$$$$+.    ",
"   o#$$$$$$$$$$#o   ",
"  .#$$$$$$$&&$$$#.  ",
"  +$$=*$$$:4=$$$$+  ",
" X$$$>62,166=$$$$$X ",
" O$$$>666666=$$$$$O ",
" @$$$>666666=$$$$$@ ",
" #$$$>66666663<>=$# ",
" #$$$>666666=$$$$$# ",
" @$$$>666666=$$$$$@ ",
" O$$$>6<;<66=$$$$$O ",
" X$$$&%$$$-5=$$$$$X ",
"  +$$$$$$$$%&$$$$+  ",
"  .#$$$$$$$$$$$$#.  ",
"   o#$$$$$$$$$$#o   ",
"    .+$$$$$$$$+.    ",
"      XO@##@OX      ",
"                    ",
"                    ",
"                    ",
"                    ",
"                    ",
"                    "
};
