/* XPM */
static char *result[] = {
/* columns rows colors chars-per-pixel */
"20 30 17 1 ",
"  c #111111",
". c #202020",
"X c #2F2F2F",
"o c #3E3E3E",
"O c gray30",
"+ c gray36",
"@ c gray42",
"# c gray48",
"$ c #888888",
"% c gray59",
"& c gray71",
"* c #C3C3C3",
"= c #E1E1E1",
"- c #E2E2E2",
"; c gray94",
": c #F1F1F1",
"> c white",
/* pixels */
"                    ",
"                    ",
"                    ",
"                    ",
"                    ",
"                    ",
"                    ",
"                    ",
"                    ",
"           XX       ",
"     Oo   #;O       ",
"     $>=%*>>O       ",
"     $>>>>>>O       ",
"     $>>>>>>O       ",
"     $>>>>>>>-&$O   ",
"     $>>>>>>O       ",
"     $>>>>>>O       ",
"     $>&@&>>O       ",
"     X.   +:O       ",
"           .X       ",
"                    ",
"                    ",
"                    ",
"                    ",
"                    ",
"                    ",
"                    ",
"                    ",
"                    ",
"                    "
};
