/* XPM */
static char *result[] = {
/* columns rows colors chars-per-pixel */
"20 30 35 1 ",
"  c #111111",
". c gray8",
"X c #151515",
"o c gray12",
"O c #252525",
"+ c #2A2A2A",
"@ c #313131",
"# c gray23",
"$ c #3F3F3F",
"% c #484848",
"& c gray29",
"* c gray31",
"= c gray32",
"- c #555555",
"; c gray36",
": c #5F5F5F",
"> c #606060",
", c #626262",
"< c #6A6A6A",
"1 c gray42",
"2 c gray44",
"3 c #767676",
"4 c #818181",
"5 c #979797",
"6 c #AEAEAE",
"7 c gray73",
"8 c #C5C5C5",
"9 c gray81",
"0 c #D0D0D0",
"q c gray83",
"w c gray86",
"e c #DDDDDD",
"r c #E1E1E1",
"t c #ECECEC",
"y c gray94",
/* pixels */
"                    ",
"                    ",
"                    ",
"                    ",
"                    ",
"                    ",
"      XO@##@OX      ",
"    .+$$$$$$$$+.    ",
"   o#$$$$$$$$$$#o   ",
"  .#$2,$$$$>-$$$#.  ",
"  +$%ty,$$5y1$$$$+  ",
" X$$$=yy,6yy1$$$$$X ",
" O$$$3;qr<0y1$$$$$O ",
" @$$$59;qr<01$$$$$@ ",
" #$$$5y9;qr<0w751$# ",
" #$$$5yy9;qr,$$$$$# ",
" @$$$5yyy9;qy,$$$$@ ",
" O$$$5y7479;yy,$$$O ",
" X$$$-&$$$38;ye*$$X ",
"  +$$$$$$$$&-=:$$+  ",
"  .#$$$$$$$$$$$$#.  ",
"   o#$$$$$$$$$$#o   ",
"    .+$$$$$$$$+.    ",
"      XO@##@OX      ",
"                    ",
"                    ",
"                    ",
"                    ",
"                    ",
"                    "
};
