/* XPM */
static char *result[] = {
/* columns rows colors chars-per-pixel */
"20 30 16 1 ",
"  c #111111",
". c gray11",
"X c #272727",
"o c #323232",
"O c #3E3E3E",
"+ c #494949",
"@ c gray33",
"# c #5F5F5F",
"$ c DimGray",
"% c #747474",
"& c #8B8B8B",
"* c #959595",
"= c #ACACAC",
"- c #B7B7B7",
"; c gray72",
": c gray76",
/* pixels */
"                    ",
"                    ",
"                    ",
"                    ",
"                    ",
"                    ",
"                    ",
"                    ",
"                    ",
"           XX       ",
"     Oo   #-O       ",
"     $:=%*::O       ",
"     $::::::O       ",
"     $::::::O       ",
"     $:::::::=&$O   ",
"     $::::::O       ",
"     $::::::O       ",
"     $:&@&::O       ",
"     X.   +;O       ",
"           .X       ",
"                    ",
"                    ",
"                    ",
"                    ",
"                    ",
"                    ",
"                    ",
"                    ",
"                    ",
"                    "
};
