/* XPM */
static char *result[] = {
/* columns rows colors chars-per-pixel */
"8 30 2 1 ",
"  c #111111",
". c None",
/* pixels */
"........",
"   .....",
"    ....",
"     ...",
"      ..",
"       .",
"       .",
"       .",
"        ",
"        ",
"        ",
"        ",
"        ",
"        ",
"        ",
"        ",
"        ",
"        ",
"        ",
"        ",
"        ",
"        ",
"        ",
"        ",
"        ",
"        ",
"        ",
"        ",
"        ",
"        "
};
